{
 "cells": [
  {
   "cell_type": "code",
   "execution_count": 44,
   "id": "55d1b9fc-c551-4f97-8221-b004af3cac23",
   "metadata": {},
   "outputs": [],
   "source": [
    "import os\n",
    "import random\n",
    "import subprocess\n",
    "from collections import defaultdict\n",
    "\n",
    "from mido import Message, MidiFile, MidiTrack, MetaMessage\n",
    "from pydub import AudioSegment\n",
    "\n",
    "# === CONFIG ===\n",
    "BPM = 200\n",
    "BEATS = 12\n",
    "BASE_MIDI_NOTE = 61\n",
    "\n",
    "soundfont_path = os.path.expanduser(\"~/soundfonts/FluidR3_GM.sf2\")\n",
    "taal_path = os.path.expanduser(\"~/Documents/music/ektaal_200bpm_csharp.wav\")\n",
    "taan_midi_path = \"taan.mid\"\n",
    "taan_wav_path = \"taan.wav\"\n",
    "mixed_path = \"mixed.wav\"\n",
    "\n",
    "raga_notes = [0, 2, 4, 6, 7, 9, 11, 12]\n",
    "# low octave: Pa (-5) to Sa (0)\n",
    "# middle octave: Sa (0) to Sa' (12)\n",
    "# high notes up to Ga' (16)\n",
    "\n",
    "notes = [\n",
    "    -5, -3, -1, 0, 2, 4, 6, 7, 9, 11, 12, 14, 16\n",
    "]\n",
    "note_names = {\n",
    "    -5: \"PÌ±\", -3: \"DÌ±\", -1: \"NÌ±\",  # low Pa to low Ni\n",
    "     0: \"S\",   2: \"R\",  4: \"G\",   6: \"M\",  7: \"P\",\n",
    "     9: \"D\",  11: \"N\", 12: \"S'\", 14: \"R'\", 16: \"G'\"\n",
    "}\n",
    "\n",
    "\n",
    "# === TAAN GENERATOR ===\n",
    "class TaanGenerator:\n",
    "    def __init__(self, notes):\n",
    "        self.notes = notes\n",
    "        self.transitions = defaultdict(self._init_uniform)\n",
    "\n",
    "    def _init_uniform(self):\n",
    "        prob = 1.0 / len(self.notes)\n",
    "        return defaultdict(lambda: prob, {n: prob for n in self.notes})\n",
    "\n",
    "    def observe(self, a, b, c, w=1.0):\n",
    "        self.transitions[(a, b)][c] += w\n",
    "\n",
    "    def normalize(self):\n",
    "        self.decay_all()\n",
    "        for key, targets in self.transitions.items():\n",
    "            total = sum(targets.values())\n",
    "            if total == 0:\n",
    "                continue  # skip dead branches\n",
    "            for c in targets:\n",
    "                targets[c] /= total\n",
    "        \n",
    "\n",
    "\n",
    "    def sample_next(self, a, b):\n",
    "        choices = self.transitions.get((a, b))\n",
    "        if not choices:\n",
    "            return random.choice(self.notes)\n",
    "        return random.choices(list(choices), weights=list(choices.values()))[0]\n",
    "\n",
    "    def generate(self, beats, start_note=0, end_note=0, tries=1000):\n",
    "        length = beats * 2\n",
    "        for _ in range(tries):\n",
    "            taan = [start_note, random.choice([n for n in self.notes if n != start_note])]\n",
    "            while len(taan) < length:\n",
    "                taan.append(self.sample_next(taan[-2], taan[-1]))\n",
    "            if taan[-1] == end_note:\n",
    "                return taan\n",
    "        return None\n",
    "\n",
    "    def decay_all(tg, factor=0.9):\n",
    "        for (a, b), targets in tg.transitions.items():\n",
    "            for c in targets:\n",
    "                targets[c] *= factor\n",
    "\n",
    "\n",
    "# === MIDI + WAV I/O ===\n",
    "# def taan_to_midi(taan, path, bpm=BPM, base_note=BASE_MIDI_NOTE):\n",
    "#     mid = MidiFile()\n",
    "#     track = MidiTrack()\n",
    "#     mid.tracks.append(track)\n",
    "\n",
    "#     tempo = int(60_000_000 / bpm)\n",
    "#     track.append(MetaMessage('set_tempo', tempo=tempo, time=0))  # ðŸ§  tempo in microseconds per beat\n",
    "\n",
    "#     tick_per_beat = mid.ticks_per_beat\n",
    "#     tick = int(tick_per_beat / 2)  # ðŸ§© 2 notes per beat\n",
    "\n",
    "#     for note in taan:\n",
    "#         pitch = base_note + note\n",
    "#         track.append(Message(\"note_on\", note=pitch, velocity=100, time=0))\n",
    "#         track.append(Message(\"note_off\", note=pitch, velocity=100, time=tick))\n",
    "\n",
    "#     mid.save(path)\n",
    "\n",
    "\n",
    "# from mido import MetaMessage, MidiFile, MidiTrack, Message\n",
    "\n",
    "def taan_to_midi(taan, path, bpm=BPM, base_note=BASE_MIDI_NOTE):\n",
    "    mid = MidiFile()\n",
    "    track = MidiTrack()\n",
    "    mid.tracks.append(track)\n",
    "\n",
    "    # tempo: beats per minute â†’ microseconds per beat\n",
    "    tempo = int(60_000_000 / bpm)\n",
    "    track.append(MetaMessage('set_tempo', tempo=tempo, time=0))\n",
    "\n",
    "    tick_per_beat = mid.ticks_per_beat\n",
    "    tick = tick_per_beat // 2  # 2 notes per beat = 0.5 beat per note\n",
    "\n",
    "    def add_silence(beats):\n",
    "        return Message(\"note_off\", note=0, velocity=0, time=int(tick_per_beat * beats))\n",
    "\n",
    "    def add_taan_sequence(seq):\n",
    "        for note in seq:\n",
    "            pitch = base_note + note\n",
    "            track.append(Message(\"note_on\", note=pitch, velocity=100, time=0))\n",
    "            track.append(Message(\"note_off\", note=pitch, velocity=100, time=tick))\n",
    "\n",
    "    # === beat structure: [12 silent beats] + taan + [12 silent beats] + taan ===\n",
    "    track.append(add_silence(12))          # pad 12 beats\n",
    "    add_taan_sequence(taan)                # play taan\n",
    "    track.append(add_silence(12))          # pad 12 beats\n",
    "    add_taan_sequence(taan)                # play taan again\n",
    "\n",
    "    mid.save(path)\n",
    "\n",
    "\n",
    "def render_midi_to_wav(midi_path, wav_path, sf2_path):\n",
    "    subprocess.run([\n",
    "        \"fluidsynth\",\n",
    "        \"-g\", \"2.0\",       # ðŸ”Š boost gain\n",
    "        \"-ni\", sf2_path,\n",
    "        midi_path,\n",
    "        \"-F\", wav_path,\n",
    "        \"-r\", \"48000\"      # ðŸ§© match taal.wav sample rate\n",
    "    ])\n",
    "\n",
    "\n",
    "# def beat_pad(beats, bpm=BPM):\n",
    "#     ms = int((60 / bpm) * 1000)\n",
    "#     return AudioSegment.silent(duration=beats * ms)\n",
    "\n",
    "# def mix_audio(taal_path, taan_path, out_path, bpm=BPM):\n",
    "#     taal = AudioSegment.from_wav(taal_path)\n",
    "#     taan = AudioSegment.from_wav(taan_path)\n",
    "\n",
    "#     beat = beat_pad(1, bpm)\n",
    "#     silent_12 = beat * 12\n",
    "\n",
    "#     # align: taan plays during 2nd and 4th loop\n",
    "#     taan_aligned = (silent_12 + taan) * 2\n",
    "#     taan_aligned = taan_aligned[:len(taal)] + beat_pad(100)  # extend tail just in case\n",
    "\n",
    "#     # volume adjustment\n",
    "#     taan_aligned = taan_aligned + 6  # dB gain\n",
    "\n",
    "#     mixed = taal.overlay(taan_aligned)\n",
    "#     mixed.export(out_path, format=\"wav\")\n",
    "\n",
    "def mix_audio(taal_path, taan_path, out_path):\n",
    "    taal = AudioSegment.from_wav(taal_path)\n",
    "    taan = AudioSegment.from_wav(taan_path)\n",
    "\n",
    "    # match volume (boost taan if needed)\n",
    "    taan = taan + 3  # ðŸ”Š increase volume by 6dB\n",
    "\n",
    "    # optional trim/pad to align lengths\n",
    "    taan = taan[:len(taal)]\n",
    "\n",
    "    combined = taal.overlay(taan)\n",
    "    combined.export(out_path, format=\"wav\")\n",
    "\n",
    "# === MAIN ===\n",
    "# def main():\n",
    "#     tg = TaanGenerator(raga_notes)\n",
    "#     for i in range(len(raga_notes) - 2):\n",
    "#         a, b, c = raga_notes[i], raga_notes[i+1], raga_notes[i+2]\n",
    "#         tg.observe(a, b, c, 2.0)\n",
    "#         tg.observe(c, b, a, 1.5)\n",
    "#     tg.normalize()\n",
    "\n",
    "#     taan = tg.generate(BEATS, 0, 0)\n",
    "#     print(\"Taan:\", \" \".join(note_names.get(n, str(n)) for n in taan))\n",
    "\n",
    "#     taan_to_midi(taan, taan_midi_path)\n",
    "#     render_midi_to_wav(taan_midi_path, taan_wav_path, soundfont_path)\n",
    "#     mix_audio(taal_path, taan_wav_path, mixed_path)\n",
    "\n",
    "#     print(\"Generated:\", mixed_path)\n",
    "#     subprocess.run([\"ffplay\", \"-nodisp\", \"-autoexit\", mixed_path])\n",
    "\n",
    "# if __name__ == \"__main__\":\n",
    "#     main()\n"
   ]
  },
  {
   "cell_type": "code",
   "execution_count": 45,
   "id": "da92c9cb-8711-4acd-98af-14e06737b2d3",
   "metadata": {},
   "outputs": [],
   "source": [
    "def taan_to_midi(taan, path, bpm=BPM, base_note=BASE_MIDI_NOTE):\n",
    "    # prepend 12 silent beats and double\n",
    "    # padded_taan = ([None]*24 + taan)*2\n",
    "\n",
    "    mid = MidiFile()\n",
    "    track = MidiTrack()\n",
    "    mid.tracks.append(track)\n",
    "\n",
    "    tempo = int(60_000_000 / bpm)\n",
    "    track.append(MetaMessage('set_tempo', tempo=tempo, time=0))\n",
    "\n",
    "    tick_per_beat = mid.ticks_per_beat\n",
    "    tick = int(tick_per_beat / 2)\n",
    "\n",
    "    for note in taan:\n",
    "        if note is None:\n",
    "            # silent: rest for one note duration\n",
    "            track.append(Message(\"note_off\", note=0, velocity=0, time=tick))\n",
    "        else:\n",
    "            pitch = base_note + note\n",
    "            track.append(Message(\"note_on\", note=pitch, velocity=100, time=0))\n",
    "            track.append(Message(\"note_off\", note=pitch, velocity=100, time=tick))\n",
    "\n",
    "    mid.save(path)\n",
    "\n",
    "def reinforce(tg, taan, delta=0.1):\n",
    "    for i in range(len(taan) - 3):  # âœ‚ï¸ exclude last triple\n",
    "        a, b, c = taan[i], taan[i+1], taan[i+2]\n",
    "        tg.observe(a, b, c, w=delta)\n",
    "\n"
   ]
  },
  {
   "cell_type": "code",
   "execution_count": 46,
   "id": "c20e3cf6-1efb-4c35-9426-9342133f4b50",
   "metadata": {},
   "outputs": [],
   "source": [
    "def print_transition_matrix(tg, note_names=note_names, min_prob=0.01):\n",
    "    print(\"\\n=== TRANSITION MATRIX ===\\n\")\n",
    "    for (a, b), nexts in sorted(tg.transitions.items()):\n",
    "        readable_a = note_names.get(a, str(a))\n",
    "        readable_b = note_names.get(b, str(b))\n",
    "        print(f\"({readable_a}, {readable_b}) â†’\")\n",
    "\n",
    "        for c, prob in sorted(nexts.items(), key=lambda x: -x[1]):\n",
    "            if prob < min_prob:\n",
    "                continue  # skip low-prob tails\n",
    "            readable_c = note_names.get(c, str(c))\n",
    "            bar = \"â–ˆ\" * int(prob * 20)\n",
    "            print(f\"   {readable_c:>2}: {prob:.2f} {bar}\")\n",
    "        print()\n"
   ]
  },
  {
   "cell_type": "code",
   "execution_count": null,
   "id": "1e0e266a-318e-4d2e-b58a-3aa09b145486",
   "metadata": {},
   "outputs": [
    {
     "name": "stdout",
     "output_type": "stream",
     "text": [
      "FluidSynth runtime version 2.3.4\n",
      "Copyright (C) 2000-2023 Peter Hanappe and others.\n",
      "Distributed under the LGPL license.\n",
      "SoundFont(R) is a registered trademark of Creative Technology Ltd.\n",
      "\n",
      "Rendering audio to file 'taan_combined.wav'..\n"
     ]
    },
    {
     "name": "stderr",
     "output_type": "stream",
     "text": [
      "ffplay version 6.1.1-3ubuntu5 Copyright (c) 2003-2023 the FFmpeg developers\n",
      "  built with gcc 13 (Ubuntu 13.2.0-23ubuntu3)\n",
      "  configuration: --prefix=/usr --extra-version=3ubuntu5 --toolchain=hardened --libdir=/usr/lib/x86_64-linux-gnu --incdir=/usr/include/x86_64-linux-gnu --arch=amd64 --enable-gpl --disable-stripping --disable-omx --enable-gnutls --enable-libaom --enable-libass --enable-libbs2b --enable-libcaca --enable-libcdio --enable-libcodec2 --enable-libdav1d --enable-libflite --enable-libfontconfig --enable-libfreetype --enable-libfribidi --enable-libglslang --enable-libgme --enable-libgsm --enable-libharfbuzz --enable-libmp3lame --enable-libmysofa --enable-libopenjpeg --enable-libopenmpt --enable-libopus --enable-librubberband --enable-libshine --enable-libsnappy --enable-libsoxr --enable-libspeex --enable-libtheora --enable-libtwolame --enable-libvidstab --enable-libvorbis --enable-libvpx --enable-libwebp --enable-libx265 --enable-libxml2 --enable-libxvid --enable-libzimg --enable-openal --enable-opencl --enable-opengl --disable-sndio --enable-libvpl --disable-libmfx --enable-libdc1394 --enable-libdrm --enable-libiec61883 --enable-chromaprint --enable-frei0r --enable-ladspa --enable-libbluray --enable-libjack --enable-libpulse --enable-librabbitmq --enable-librist --enable-libsrt --enable-libssh --enable-libsvtav1 --enable-libx264 --enable-libzmq --enable-libzvbi --enable-lv2 --enable-sdl2 --enable-libplacebo --enable-librav1e --enable-pocketsphinx --enable-librsvg --enable-libjxl --enable-shared\n",
      "  libavutil      58. 29.100 / 58. 29.100\n",
      "  libavcodec     60. 31.102 / 60. 31.102\n",
      "  libavformat    60. 16.100 / 60. 16.100\n",
      "  libavdevice    60.  3.100 / 60.  3.100\n",
      "  libavfilter     9. 12.100 /  9. 12.100\n",
      "  libswscale      7.  5.100 /  7.  5.100\n",
      "  libswresample   4. 12.100 /  4. 12.100\n",
      "  libpostproc    57.  3.100 / 57.  3.100\n",
      "Input #0, wav, from 'taan_mixed.wav':B vq=    0KB sq=    0B f=0/0   \n",
      "  Duration: 00:00:14.40, bitrate: 1536 kb/s\n",
      "  Stream #0:0: Audio: pcm_s16le ([1][0][0][0] / 0x0001), 48000 Hz, 2 channels, s16, 1536 kb/s\n",
      "  14.32 M-A:  0.000 fd=   0 aq=    0KB vq=    0KB sq=    0B f=0/0   "
     ]
    },
    {
     "name": "stdout",
     "output_type": "stream",
     "text": [
      "\n"
     ]
    },
    {
     "name": "stdin",
     "output_type": "stream",
     "text": [
      "Which taan was better? [1/2]:  1\n"
     ]
    },
    {
     "name": "stdout",
     "output_type": "stream",
     "text": [
      "\n",
      "=== TRANSITION MATRIX ===\n",
      "\n",
      "(S, N) â†’\n",
      "    D: 0.13 â–ˆâ–ˆ\n",
      "    S: 0.12 â–ˆâ–ˆ\n",
      "    R: 0.12 â–ˆâ–ˆ\n",
      "    G: 0.12 â–ˆâ–ˆ\n",
      "    M: 0.12 â–ˆâ–ˆ\n",
      "    P: 0.12 â–ˆâ–ˆ\n",
      "    N: 0.12 â–ˆâ–ˆ\n",
      "   S': 0.12 â–ˆâ–ˆ\n",
      "\n",
      "(R, G) â†’\n",
      "    D: 0.13 â–ˆâ–ˆ\n",
      "    S: 0.12 â–ˆâ–ˆ\n",
      "    R: 0.12 â–ˆâ–ˆ\n",
      "    G: 0.12 â–ˆâ–ˆ\n",
      "    M: 0.12 â–ˆâ–ˆ\n",
      "    P: 0.12 â–ˆâ–ˆ\n",
      "    N: 0.12 â–ˆâ–ˆ\n",
      "   S': 0.12 â–ˆâ–ˆ\n",
      "\n",
      "(G, D) â†’\n",
      "    M: 0.13 â–ˆâ–ˆ\n",
      "    S: 0.12 â–ˆâ–ˆ\n",
      "    R: 0.12 â–ˆâ–ˆ\n",
      "    G: 0.12 â–ˆâ–ˆ\n",
      "    P: 0.12 â–ˆâ–ˆ\n",
      "    D: 0.12 â–ˆâ–ˆ\n",
      "    N: 0.12 â–ˆâ–ˆ\n",
      "   S': 0.12 â–ˆâ–ˆ\n",
      "\n",
      "(G, N) â†’\n",
      "    D: 0.13 â–ˆâ–ˆ\n",
      "    S: 0.12 â–ˆâ–ˆ\n",
      "    R: 0.12 â–ˆâ–ˆ\n",
      "    G: 0.12 â–ˆâ–ˆ\n",
      "    M: 0.12 â–ˆâ–ˆ\n",
      "    P: 0.12 â–ˆâ–ˆ\n",
      "    N: 0.12 â–ˆâ–ˆ\n",
      "   S': 0.12 â–ˆâ–ˆ\n",
      "\n",
      "(M, D) â†’\n",
      "    M: 0.13 â–ˆâ–ˆ\n",
      "   S': 0.13 â–ˆâ–ˆ\n",
      "    S: 0.12 â–ˆâ–ˆ\n",
      "    R: 0.12 â–ˆâ–ˆ\n",
      "    G: 0.12 â–ˆâ–ˆ\n",
      "    P: 0.12 â–ˆâ–ˆ\n",
      "    D: 0.12 â–ˆâ–ˆ\n",
      "    N: 0.12 â–ˆâ–ˆ\n",
      "\n",
      "(M, N) â†’\n",
      "    M: 0.13 â–ˆâ–ˆ\n",
      "    S: 0.12 â–ˆâ–ˆ\n",
      "    R: 0.12 â–ˆâ–ˆ\n",
      "    G: 0.12 â–ˆâ–ˆ\n",
      "    P: 0.12 â–ˆâ–ˆ\n",
      "    D: 0.12 â–ˆâ–ˆ\n",
      "    N: 0.12 â–ˆâ–ˆ\n",
      "   S': 0.12 â–ˆâ–ˆ\n",
      "\n",
      "(D, R) â†’\n",
      "    G: 0.13 â–ˆâ–ˆ\n",
      "    S: 0.12 â–ˆâ–ˆ\n",
      "    R: 0.12 â–ˆâ–ˆ\n",
      "    M: 0.12 â–ˆâ–ˆ\n",
      "    P: 0.12 â–ˆâ–ˆ\n",
      "    D: 0.12 â–ˆâ–ˆ\n",
      "    N: 0.12 â–ˆâ–ˆ\n",
      "   S': 0.12 â–ˆâ–ˆ\n",
      "\n",
      "(D, M) â†’\n",
      "    D: 0.13 â–ˆâ–ˆ\n",
      "    N: 0.13 â–ˆâ–ˆ\n",
      "    S: 0.12 â–ˆâ–ˆ\n",
      "    R: 0.12 â–ˆâ–ˆ\n",
      "    G: 0.12 â–ˆâ–ˆ\n",
      "    M: 0.12 â–ˆâ–ˆ\n",
      "    P: 0.12 â–ˆâ–ˆ\n",
      "   S': 0.12 â–ˆâ–ˆ\n",
      "\n",
      "(D, D) â†’\n",
      "    N: 0.14 â–ˆâ–ˆ\n",
      "    S: 0.12 â–ˆâ–ˆ\n",
      "    R: 0.12 â–ˆâ–ˆ\n",
      "    G: 0.12 â–ˆâ–ˆ\n",
      "    M: 0.12 â–ˆâ–ˆ\n",
      "    P: 0.12 â–ˆâ–ˆ\n",
      "    D: 0.12 â–ˆâ–ˆ\n",
      "   S': 0.12 â–ˆâ–ˆ\n",
      "\n",
      "(D, N) â†’\n",
      "    G: 0.13 â–ˆâ–ˆ\n",
      "   S': 0.13 â–ˆâ–ˆ\n",
      "    S: 0.12 â–ˆâ–ˆ\n",
      "    R: 0.12 â–ˆâ–ˆ\n",
      "    M: 0.12 â–ˆâ–ˆ\n",
      "    P: 0.12 â–ˆâ–ˆ\n",
      "    D: 0.12 â–ˆâ–ˆ\n",
      "    N: 0.12 â–ˆâ–ˆ\n",
      "\n",
      "(D, S') â†’\n",
      "    N: 0.13 â–ˆâ–ˆ\n",
      "    S: 0.12 â–ˆâ–ˆ\n",
      "    R: 0.12 â–ˆâ–ˆ\n",
      "    G: 0.12 â–ˆâ–ˆ\n",
      "    M: 0.12 â–ˆâ–ˆ\n",
      "    P: 0.12 â–ˆâ–ˆ\n",
      "    D: 0.12 â–ˆâ–ˆ\n",
      "   S': 0.12 â–ˆâ–ˆ\n",
      "\n",
      "(N, G) â†’\n",
      "    N: 0.13 â–ˆâ–ˆ\n",
      "    S: 0.12 â–ˆâ–ˆ\n",
      "    R: 0.12 â–ˆâ–ˆ\n",
      "    G: 0.12 â–ˆâ–ˆ\n",
      "    M: 0.12 â–ˆâ–ˆ\n",
      "    P: 0.12 â–ˆâ–ˆ\n",
      "    D: 0.12 â–ˆâ–ˆ\n",
      "   S': 0.12 â–ˆâ–ˆ\n",
      "\n",
      "(N, M) â†’\n",
      "    D: 0.13 â–ˆâ–ˆ\n",
      "    S: 0.12 â–ˆâ–ˆ\n",
      "    R: 0.12 â–ˆâ–ˆ\n",
      "    G: 0.12 â–ˆâ–ˆ\n",
      "    M: 0.12 â–ˆâ–ˆ\n",
      "    P: 0.12 â–ˆâ–ˆ\n",
      "    N: 0.12 â–ˆâ–ˆ\n",
      "   S': 0.12 â–ˆâ–ˆ\n",
      "\n",
      "(N, D) â†’\n",
      "    R: 0.13 â–ˆâ–ˆ\n",
      "    D: 0.13 â–ˆâ–ˆ\n",
      "    S: 0.12 â–ˆâ–ˆ\n",
      "    G: 0.12 â–ˆâ–ˆ\n",
      "    M: 0.12 â–ˆâ–ˆ\n",
      "    P: 0.12 â–ˆâ–ˆ\n",
      "    N: 0.12 â–ˆâ–ˆ\n",
      "   S': 0.12 â–ˆâ–ˆ\n",
      "\n",
      "(N, S') â†’\n",
      "    D: 0.13 â–ˆâ–ˆ\n",
      "    S: 0.12 â–ˆâ–ˆ\n",
      "    R: 0.12 â–ˆâ–ˆ\n",
      "    G: 0.12 â–ˆâ–ˆ\n",
      "    M: 0.12 â–ˆâ–ˆ\n",
      "    P: 0.12 â–ˆâ–ˆ\n",
      "    N: 0.12 â–ˆâ–ˆ\n",
      "   S': 0.12 â–ˆâ–ˆ\n",
      "\n",
      "(S', D) â†’\n",
      "    D: 0.13 â–ˆâ–ˆ\n",
      "    S: 0.12 â–ˆâ–ˆ\n",
      "    R: 0.12 â–ˆâ–ˆ\n",
      "    G: 0.12 â–ˆâ–ˆ\n",
      "    M: 0.12 â–ˆâ–ˆ\n",
      "    P: 0.12 â–ˆâ–ˆ\n",
      "    N: 0.12 â–ˆâ–ˆ\n",
      "   S': 0.12 â–ˆâ–ˆ\n",
      "\n",
      "FluidSynth runtime version 2.3.4\n",
      "Copyright (C) 2000-2023 Peter Hanappe and others.\n",
      "Distributed under the LGPL license.\n",
      "SoundFont(R) is a registered trademark of Creative Technology Ltd.\n",
      "\n",
      "Rendering audio to file 'taan_combined.wav'..\n"
     ]
    },
    {
     "name": "stderr",
     "output_type": "stream",
     "text": [
      "ffplay version 6.1.1-3ubuntu5 Copyright (c) 2003-2023 the FFmpeg developers\n",
      "  built with gcc 13 (Ubuntu 13.2.0-23ubuntu3)\n",
      "  configuration: --prefix=/usr --extra-version=3ubuntu5 --toolchain=hardened --libdir=/usr/lib/x86_64-linux-gnu --incdir=/usr/include/x86_64-linux-gnu --arch=amd64 --enable-gpl --disable-stripping --disable-omx --enable-gnutls --enable-libaom --enable-libass --enable-libbs2b --enable-libcaca --enable-libcdio --enable-libcodec2 --enable-libdav1d --enable-libflite --enable-libfontconfig --enable-libfreetype --enable-libfribidi --enable-libglslang --enable-libgme --enable-libgsm --enable-libharfbuzz --enable-libmp3lame --enable-libmysofa --enable-libopenjpeg --enable-libopenmpt --enable-libopus --enable-librubberband --enable-libshine --enable-libsnappy --enable-libsoxr --enable-libspeex --enable-libtheora --enable-libtwolame --enable-libvidstab --enable-libvorbis --enable-libvpx --enable-libwebp --enable-libx265 --enable-libxml2 --enable-libxvid --enable-libzimg --enable-openal --enable-opencl --enable-opengl --disable-sndio --enable-libvpl --disable-libmfx --enable-libdc1394 --enable-libdrm --enable-libiec61883 --enable-chromaprint --enable-frei0r --enable-ladspa --enable-libbluray --enable-libjack --enable-libpulse --enable-librabbitmq --enable-librist --enable-libsrt --enable-libssh --enable-libsvtav1 --enable-libx264 --enable-libzmq --enable-libzvbi --enable-lv2 --enable-sdl2 --enable-libplacebo --enable-librav1e --enable-pocketsphinx --enable-librsvg --enable-libjxl --enable-shared\n",
      "  libavutil      58. 29.100 / 58. 29.100\n",
      "  libavcodec     60. 31.102 / 60. 31.102\n",
      "  libavformat    60. 16.100 / 60. 16.100\n",
      "  libavdevice    60.  3.100 / 60.  3.100\n",
      "  libavfilter     9. 12.100 /  9. 12.100\n",
      "  libswscale      7.  5.100 /  7.  5.100\n",
      "  libswresample   4. 12.100 /  4. 12.100\n",
      "  libpostproc    57.  3.100 / 57.  3.100\n",
      "Input #0, wav, from 'taan_mixed.wav':B vq=    0KB sq=    0B f=0/0   \n",
      "  Duration: 00:00:14.40, bitrate: 1536 kb/s\n",
      "  Stream #0:0: Audio: pcm_s16le ([1][0][0][0] / 0x0001), 48000 Hz, 2 channels, s16, 1536 kb/s\n",
      "  14.34 M-A:  0.000 fd=   0 aq=    0KB vq=    0KB sq=    0B f=0/0   "
     ]
    },
    {
     "name": "stdout",
     "output_type": "stream",
     "text": [
      "\n"
     ]
    },
    {
     "name": "stdin",
     "output_type": "stream",
     "text": [
      "Which taan was better? [1/2]:  2\n"
     ]
    },
    {
     "name": "stdout",
     "output_type": "stream",
     "text": [
      "\n",
      "=== TRANSITION MATRIX ===\n",
      "\n",
      "(S, R) â†’\n",
      "    P: 0.13 â–ˆâ–ˆ\n",
      "    N: 0.13 â–ˆâ–ˆ\n",
      "    S: 0.12 â–ˆâ–ˆ\n",
      "    R: 0.12 â–ˆâ–ˆ\n",
      "    G: 0.12 â–ˆâ–ˆ\n",
      "    M: 0.12 â–ˆâ–ˆ\n",
      "    D: 0.12 â–ˆâ–ˆ\n",
      "   S': 0.12 â–ˆâ–ˆ\n",
      "\n",
      "(S, N) â†’\n",
      "    N: 0.13 â–ˆâ–ˆ\n",
      "    D: 0.13 â–ˆâ–ˆ\n",
      "    S: 0.12 â–ˆâ–ˆ\n",
      "    R: 0.12 â–ˆâ–ˆ\n",
      "    G: 0.12 â–ˆâ–ˆ\n",
      "    M: 0.12 â–ˆâ–ˆ\n",
      "    P: 0.12 â–ˆâ–ˆ\n",
      "   S': 0.12 â–ˆâ–ˆ\n",
      "\n",
      "(R, G) â†’\n",
      "    D: 0.13 â–ˆâ–ˆ\n",
      "    S: 0.12 â–ˆâ–ˆ\n",
      "    R: 0.12 â–ˆâ–ˆ\n",
      "    G: 0.12 â–ˆâ–ˆ\n",
      "    M: 0.12 â–ˆâ–ˆ\n",
      "    P: 0.12 â–ˆâ–ˆ\n",
      "    N: 0.12 â–ˆâ–ˆ\n",
      "   S': 0.12 â–ˆâ–ˆ\n",
      "\n",
      "(R, P) â†’\n",
      "    P: 0.13 â–ˆâ–ˆ\n",
      "    S: 0.12 â–ˆâ–ˆ\n",
      "    R: 0.12 â–ˆâ–ˆ\n",
      "    G: 0.12 â–ˆâ–ˆ\n",
      "    M: 0.12 â–ˆâ–ˆ\n",
      "    D: 0.12 â–ˆâ–ˆ\n",
      "    N: 0.12 â–ˆâ–ˆ\n",
      "   S': 0.12 â–ˆâ–ˆ\n",
      "\n",
      "(R, N) â†’\n",
      "    G: 0.13 â–ˆâ–ˆ\n",
      "    N: 0.13 â–ˆâ–ˆ\n",
      "    S: 0.12 â–ˆâ–ˆ\n",
      "    R: 0.12 â–ˆâ–ˆ\n",
      "    M: 0.12 â–ˆâ–ˆ\n",
      "    P: 0.12 â–ˆâ–ˆ\n",
      "    D: 0.12 â–ˆâ–ˆ\n",
      "   S': 0.12 â–ˆâ–ˆ\n",
      "\n",
      "(G, S) â†’\n",
      "    N: 0.13 â–ˆâ–ˆ\n",
      "    S: 0.12 â–ˆâ–ˆ\n",
      "    R: 0.12 â–ˆâ–ˆ\n",
      "    G: 0.12 â–ˆâ–ˆ\n",
      "    M: 0.12 â–ˆâ–ˆ\n",
      "    P: 0.12 â–ˆâ–ˆ\n",
      "    D: 0.12 â–ˆâ–ˆ\n",
      "   S': 0.12 â–ˆâ–ˆ\n",
      "\n",
      "(G, M) â†’\n",
      "   S': 0.13 â–ˆâ–ˆ\n",
      "    S: 0.12 â–ˆâ–ˆ\n",
      "    R: 0.12 â–ˆâ–ˆ\n",
      "    G: 0.12 â–ˆâ–ˆ\n",
      "    M: 0.12 â–ˆâ–ˆ\n",
      "    P: 0.12 â–ˆâ–ˆ\n",
      "    D: 0.12 â–ˆâ–ˆ\n",
      "    N: 0.12 â–ˆâ–ˆ\n",
      "\n",
      "(G, D) â†’\n",
      "    M: 0.13 â–ˆâ–ˆ\n",
      "    S: 0.12 â–ˆâ–ˆ\n",
      "    R: 0.12 â–ˆâ–ˆ\n",
      "    G: 0.12 â–ˆâ–ˆ\n",
      "    P: 0.12 â–ˆâ–ˆ\n",
      "    D: 0.12 â–ˆâ–ˆ\n",
      "    N: 0.12 â–ˆâ–ˆ\n",
      "   S': 0.12 â–ˆâ–ˆ\n",
      "\n",
      "(G, N) â†’\n",
      "    G: 0.13 â–ˆâ–ˆ\n",
      "    D: 0.13 â–ˆâ–ˆ\n",
      "    S: 0.12 â–ˆâ–ˆ\n",
      "    R: 0.12 â–ˆâ–ˆ\n",
      "    M: 0.12 â–ˆâ–ˆ\n",
      "    P: 0.12 â–ˆâ–ˆ\n",
      "    N: 0.12 â–ˆâ–ˆ\n",
      "   S': 0.12 â–ˆâ–ˆ\n",
      "\n",
      "(M, P) â†’\n",
      "    S: 0.13 â–ˆâ–ˆ\n",
      "    R: 0.12 â–ˆâ–ˆ\n",
      "    G: 0.12 â–ˆâ–ˆ\n",
      "    M: 0.12 â–ˆâ–ˆ\n",
      "    P: 0.12 â–ˆâ–ˆ\n",
      "    D: 0.12 â–ˆâ–ˆ\n",
      "    N: 0.12 â–ˆâ–ˆ\n",
      "   S': 0.12 â–ˆâ–ˆ\n",
      "\n",
      "(M, D) â†’\n",
      "    M: 0.13 â–ˆâ–ˆ\n",
      "   S': 0.13 â–ˆâ–ˆ\n",
      "    S: 0.12 â–ˆâ–ˆ\n",
      "    R: 0.12 â–ˆâ–ˆ\n",
      "    G: 0.12 â–ˆâ–ˆ\n",
      "    P: 0.12 â–ˆâ–ˆ\n",
      "    D: 0.12 â–ˆâ–ˆ\n",
      "    N: 0.12 â–ˆâ–ˆ\n",
      "\n",
      "(M, N) â†’\n",
      "    M: 0.13 â–ˆâ–ˆ\n",
      "    S: 0.12 â–ˆâ–ˆ\n",
      "    R: 0.12 â–ˆâ–ˆ\n",
      "    G: 0.12 â–ˆâ–ˆ\n",
      "    P: 0.12 â–ˆâ–ˆ\n",
      "    D: 0.12 â–ˆâ–ˆ\n",
      "    N: 0.12 â–ˆâ–ˆ\n",
      "   S': 0.12 â–ˆâ–ˆ\n",
      "\n",
      "(M, S') â†’\n",
      "    D: 0.13 â–ˆâ–ˆ\n",
      "    S: 0.12 â–ˆâ–ˆ\n",
      "    R: 0.12 â–ˆâ–ˆ\n",
      "    G: 0.12 â–ˆâ–ˆ\n",
      "    M: 0.12 â–ˆâ–ˆ\n",
      "    P: 0.12 â–ˆâ–ˆ\n",
      "    N: 0.12 â–ˆâ–ˆ\n",
      "   S': 0.12 â–ˆâ–ˆ\n",
      "\n",
      "(P, S) â†’\n",
      "    R: 0.13 â–ˆâ–ˆ\n",
      "    S: 0.12 â–ˆâ–ˆ\n",
      "    G: 0.12 â–ˆâ–ˆ\n",
      "    M: 0.12 â–ˆâ–ˆ\n",
      "    P: 0.12 â–ˆâ–ˆ\n",
      "    D: 0.12 â–ˆâ–ˆ\n",
      "    N: 0.12 â–ˆâ–ˆ\n",
      "   S': 0.12 â–ˆâ–ˆ\n",
      "\n",
      "(P, R) â†’\n",
      "    N: 0.13 â–ˆâ–ˆ\n",
      "    S: 0.12 â–ˆâ–ˆ\n",
      "    R: 0.12 â–ˆâ–ˆ\n",
      "    G: 0.12 â–ˆâ–ˆ\n",
      "    M: 0.12 â–ˆâ–ˆ\n",
      "    P: 0.12 â–ˆâ–ˆ\n",
      "    D: 0.12 â–ˆâ–ˆ\n",
      "   S': 0.12 â–ˆâ–ˆ\n",
      "\n",
      "(P, M) â†’\n",
      "    P: 0.13 â–ˆâ–ˆ\n",
      "    S: 0.12 â–ˆâ–ˆ\n",
      "    R: 0.12 â–ˆâ–ˆ\n",
      "    G: 0.12 â–ˆâ–ˆ\n",
      "    M: 0.12 â–ˆâ–ˆ\n",
      "    D: 0.12 â–ˆâ–ˆ\n",
      "    N: 0.12 â–ˆâ–ˆ\n",
      "   S': 0.12 â–ˆâ–ˆ\n",
      "\n",
      "(P, P) â†’\n",
      "    R: 0.13 â–ˆâ–ˆ\n",
      "    S: 0.12 â–ˆâ–ˆ\n",
      "    G: 0.12 â–ˆâ–ˆ\n",
      "    M: 0.12 â–ˆâ–ˆ\n",
      "    P: 0.12 â–ˆâ–ˆ\n",
      "    D: 0.12 â–ˆâ–ˆ\n",
      "    N: 0.12 â–ˆâ–ˆ\n",
      "   S': 0.12 â–ˆâ–ˆ\n",
      "\n",
      "(D, R) â†’\n",
      "    G: 0.13 â–ˆâ–ˆ\n",
      "    S: 0.12 â–ˆâ–ˆ\n",
      "    R: 0.12 â–ˆâ–ˆ\n",
      "    M: 0.12 â–ˆâ–ˆ\n",
      "    P: 0.12 â–ˆâ–ˆ\n",
      "    D: 0.12 â–ˆâ–ˆ\n",
      "    N: 0.12 â–ˆâ–ˆ\n",
      "   S': 0.12 â–ˆâ–ˆ\n",
      "\n",
      "(D, M) â†’\n",
      "    D: 0.13 â–ˆâ–ˆ\n",
      "    N: 0.13 â–ˆâ–ˆ\n",
      "    S: 0.12 â–ˆâ–ˆ\n",
      "    R: 0.12 â–ˆâ–ˆ\n",
      "    G: 0.12 â–ˆâ–ˆ\n",
      "    M: 0.12 â–ˆâ–ˆ\n",
      "    P: 0.12 â–ˆâ–ˆ\n",
      "   S': 0.12 â–ˆâ–ˆ\n",
      "\n",
      "(D, P) â†’\n",
      "    M: 0.13 â–ˆâ–ˆ\n",
      "    S: 0.12 â–ˆâ–ˆ\n",
      "    R: 0.12 â–ˆâ–ˆ\n",
      "    G: 0.12 â–ˆâ–ˆ\n",
      "    P: 0.12 â–ˆâ–ˆ\n",
      "    D: 0.12 â–ˆâ–ˆ\n",
      "    N: 0.12 â–ˆâ–ˆ\n",
      "   S': 0.12 â–ˆâ–ˆ\n",
      "\n",
      "(D, D) â†’\n",
      "    N: 0.14 â–ˆâ–ˆ\n",
      "    S: 0.12 â–ˆâ–ˆ\n",
      "    R: 0.12 â–ˆâ–ˆ\n",
      "    G: 0.12 â–ˆâ–ˆ\n",
      "    M: 0.12 â–ˆâ–ˆ\n",
      "    P: 0.12 â–ˆâ–ˆ\n",
      "    D: 0.12 â–ˆâ–ˆ\n",
      "   S': 0.12 â–ˆâ–ˆ\n",
      "\n",
      "(D, N) â†’\n",
      "    G: 0.13 â–ˆâ–ˆ\n",
      "   S': 0.13 â–ˆâ–ˆ\n",
      "    S: 0.12 â–ˆâ–ˆ\n",
      "    R: 0.12 â–ˆâ–ˆ\n",
      "    M: 0.12 â–ˆâ–ˆ\n",
      "    P: 0.12 â–ˆâ–ˆ\n",
      "    D: 0.12 â–ˆâ–ˆ\n",
      "    N: 0.12 â–ˆâ–ˆ\n",
      "\n",
      "(D, S') â†’\n",
      "    N: 0.13 â–ˆâ–ˆ\n",
      "    S: 0.12 â–ˆâ–ˆ\n",
      "    R: 0.12 â–ˆâ–ˆ\n",
      "    G: 0.12 â–ˆâ–ˆ\n",
      "    M: 0.12 â–ˆâ–ˆ\n",
      "    P: 0.12 â–ˆâ–ˆ\n",
      "    D: 0.12 â–ˆâ–ˆ\n",
      "   S': 0.12 â–ˆâ–ˆ\n",
      "\n",
      "(N, G) â†’\n",
      "    N: 0.14 â–ˆâ–ˆ\n",
      "    S: 0.13 â–ˆâ–ˆ\n",
      "    M: 0.13 â–ˆâ–ˆ\n",
      "    R: 0.12 â–ˆâ–ˆ\n",
      "    G: 0.12 â–ˆâ–ˆ\n",
      "    P: 0.12 â–ˆâ–ˆ\n",
      "    D: 0.12 â–ˆâ–ˆ\n",
      "   S': 0.12 â–ˆâ–ˆ\n",
      "\n",
      "(N, M) â†’\n",
      "    D: 0.13 â–ˆâ–ˆ\n",
      "    S: 0.12 â–ˆâ–ˆ\n",
      "    R: 0.12 â–ˆâ–ˆ\n",
      "    G: 0.12 â–ˆâ–ˆ\n",
      "    M: 0.12 â–ˆâ–ˆ\n",
      "    P: 0.12 â–ˆâ–ˆ\n",
      "    N: 0.12 â–ˆâ–ˆ\n",
      "   S': 0.12 â–ˆâ–ˆ\n",
      "\n",
      "(N, D) â†’\n",
      "    R: 0.13 â–ˆâ–ˆ\n",
      "    D: 0.13 â–ˆâ–ˆ\n",
      "    S: 0.12 â–ˆâ–ˆ\n",
      "    G: 0.12 â–ˆâ–ˆ\n",
      "    M: 0.12 â–ˆâ–ˆ\n",
      "    P: 0.12 â–ˆâ–ˆ\n",
      "    N: 0.12 â–ˆâ–ˆ\n",
      "   S': 0.12 â–ˆâ–ˆ\n",
      "\n",
      "(N, N) â†’\n",
      "    G: 0.13 â–ˆâ–ˆ\n",
      "    S: 0.12 â–ˆâ–ˆ\n",
      "    R: 0.12 â–ˆâ–ˆ\n",
      "    M: 0.12 â–ˆâ–ˆ\n",
      "    P: 0.12 â–ˆâ–ˆ\n",
      "    D: 0.12 â–ˆâ–ˆ\n",
      "    N: 0.12 â–ˆâ–ˆ\n",
      "   S': 0.12 â–ˆâ–ˆ\n",
      "\n",
      "(N, S') â†’\n",
      "    D: 0.13 â–ˆâ–ˆ\n",
      "    S: 0.12 â–ˆâ–ˆ\n",
      "    R: 0.12 â–ˆâ–ˆ\n",
      "    G: 0.12 â–ˆâ–ˆ\n",
      "    M: 0.12 â–ˆâ–ˆ\n",
      "    P: 0.12 â–ˆâ–ˆ\n",
      "    N: 0.12 â–ˆâ–ˆ\n",
      "   S': 0.12 â–ˆâ–ˆ\n",
      "\n",
      "(S', D) â†’\n",
      "    P: 0.13 â–ˆâ–ˆ\n",
      "    D: 0.13 â–ˆâ–ˆ\n",
      "    S: 0.12 â–ˆâ–ˆ\n",
      "    R: 0.12 â–ˆâ–ˆ\n",
      "    G: 0.12 â–ˆâ–ˆ\n",
      "    M: 0.12 â–ˆâ–ˆ\n",
      "    N: 0.12 â–ˆâ–ˆ\n",
      "   S': 0.12 â–ˆâ–ˆ\n",
      "\n",
      "FluidSynth runtime version 2.3.4\n",
      "Copyright (C) 2000-2023 Peter Hanappe and others.\n",
      "Distributed under the LGPL license.\n",
      "SoundFont(R) is a registered trademark of Creative Technology Ltd.\n",
      "\n",
      "Rendering audio to file 'taan_combined.wav'..\n"
     ]
    },
    {
     "name": "stderr",
     "output_type": "stream",
     "text": [
      "ffplay version 6.1.1-3ubuntu5 Copyright (c) 2003-2023 the FFmpeg developers\n",
      "  built with gcc 13 (Ubuntu 13.2.0-23ubuntu3)\n",
      "  configuration: --prefix=/usr --extra-version=3ubuntu5 --toolchain=hardened --libdir=/usr/lib/x86_64-linux-gnu --incdir=/usr/include/x86_64-linux-gnu --arch=amd64 --enable-gpl --disable-stripping --disable-omx --enable-gnutls --enable-libaom --enable-libass --enable-libbs2b --enable-libcaca --enable-libcdio --enable-libcodec2 --enable-libdav1d --enable-libflite --enable-libfontconfig --enable-libfreetype --enable-libfribidi --enable-libglslang --enable-libgme --enable-libgsm --enable-libharfbuzz --enable-libmp3lame --enable-libmysofa --enable-libopenjpeg --enable-libopenmpt --enable-libopus --enable-librubberband --enable-libshine --enable-libsnappy --enable-libsoxr --enable-libspeex --enable-libtheora --enable-libtwolame --enable-libvidstab --enable-libvorbis --enable-libvpx --enable-libwebp --enable-libx265 --enable-libxml2 --enable-libxvid --enable-libzimg --enable-openal --enable-opencl --enable-opengl --disable-sndio --enable-libvpl --disable-libmfx --enable-libdc1394 --enable-libdrm --enable-libiec61883 --enable-chromaprint --enable-frei0r --enable-ladspa --enable-libbluray --enable-libjack --enable-libpulse --enable-librabbitmq --enable-librist --enable-libsrt --enable-libssh --enable-libsvtav1 --enable-libx264 --enable-libzmq --enable-libzvbi --enable-lv2 --enable-sdl2 --enable-libplacebo --enable-librav1e --enable-pocketsphinx --enable-librsvg --enable-libjxl --enable-shared\n",
      "  libavutil      58. 29.100 / 58. 29.100\n",
      "  libavcodec     60. 31.102 / 60. 31.102\n",
      "  libavformat    60. 16.100 / 60. 16.100\n",
      "  libavdevice    60.  3.100 / 60.  3.100\n",
      "  libavfilter     9. 12.100 /  9. 12.100\n",
      "  libswscale      7.  5.100 /  7.  5.100\n",
      "  libswresample   4. 12.100 /  4. 12.100\n",
      "  libpostproc    57.  3.100 / 57.  3.100\n",
      "Input #0, wav, from 'taan_mixed.wav':B vq=    0KB sq=    0B f=0/0   \n",
      "  Duration: 00:00:14.40, bitrate: 1536 kb/s\n",
      "  Stream #0:0: Audio: pcm_s16le ([1][0][0][0] / 0x0001), 48000 Hz, 2 channels, s16, 1536 kb/s\n",
      "  14.33 M-A:  0.000 fd=   0 aq=    0KB vq=    0KB sq=    0B f=0/0   "
     ]
    },
    {
     "name": "stdout",
     "output_type": "stream",
     "text": [
      "\n"
     ]
    }
   ],
   "source": [
    "# === MAIN ===\n",
    "def main():\n",
    "    tg = TaanGenerator(raga_notes)\n",
    "\n",
    "    for round in range(100):\n",
    "        t1 = tg.generate(BEATS, 0, 0)\n",
    "        t2 = tg.generate(BEATS, 0, 0)\n",
    "\n",
    "        taan_combination = [None] * 24 + t1 + [None] * 24 + t2\n",
    "\n",
    "\n",
    "        taan_combined = taan_to_midi(taan_combination, \"taan_combined.mid\")\n",
    "        render_midi_to_wav(\"taan_combined.mid\", \"taan_combined.wav\", soundfont_path)\n",
    "        mix_audio(taal_path, \"taan_combined.wav\", \"taan_mixed.wav\")\n",
    "\n",
    "        \n",
    "        # taan_to_midi(t1, \"t1.mid\")\n",
    "        # taan_to_midi(t2, \"t2.mid\")\n",
    "        # render_midi_to_wav(\"t1.mid\", \"t1.wav\", soundfont_path)\n",
    "        # render_midi_to_wav(\"t2.mid\", \"t2.wav\", soundfont_path)\n",
    "    \n",
    "        # mix_audio(taal_path, \"t1.wav\", \"t1_mixed.wav\")\n",
    "        # mix_audio(taal_path, \"t2.wav\", \"t2_mixed.wav\")\n",
    "    \n",
    "        subprocess.run([\"ffplay\", \"-nodisp\", \"-autoexit\", \"taan_mixed.wav\"])\n",
    "        # subprocess.run([\"ffplay\", \"-nodisp\", \"-autoexit\", \"t2_mixed.wav\"])\n",
    "    \n",
    "        vote = input(\"Which taan was better? [1/2]: \").strip()\n",
    "        if vote == \"1\":\n",
    "            reinforce(tg, t1, delta=0.01)\n",
    "            # punish(tg, t2, delta=0.2)\n",
    "        elif vote == \"2\":\n",
    "            reinforce(tg, t2, delta=0.01)\n",
    "            # punish(tg, t1, delta=0.2)\n",
    "    \n",
    "        tg.normalize()\n",
    "        print_transition_matrix(tg)\n",
    "\n",
    "\n",
    "if __name__ == \"__main__\":\n",
    "    main()"
   ]
  },
  {
   "cell_type": "code",
   "execution_count": null,
   "id": "94fd4ebf-16dd-4382-b407-cdc45f57c78e",
   "metadata": {},
   "outputs": [],
   "source": [
    "from IPython.display import display, HTML\n",
    "\n",
    "display(HTML(\"\"\"\n",
    "<style>\n",
    ".output_scroll {\n",
    "    overflow-x: auto !important;\n",
    "    max-height: none !important;\n",
    "}\n",
    ".output {\n",
    "    overflow-x: auto !important;\n",
    "    max-height: none !important;\n",
    "}\n",
    "</style>\n",
    "\"\"\"))\n"
   ]
  },
  {
   "cell_type": "code",
   "execution_count": null,
   "id": "e585be7c-47bb-4d85-9ceb-3cd841c83f7c",
   "metadata": {},
   "outputs": [],
   "source": []
  }
 ],
 "metadata": {
  "kernelspec": {
   "display_name": "Python 3 (ipykernel)",
   "language": "python",
   "name": "python3"
  },
  "language_info": {
   "codemirror_mode": {
    "name": "ipython",
    "version": 3
   },
   "file_extension": ".py",
   "mimetype": "text/x-python",
   "name": "python",
   "nbconvert_exporter": "python",
   "pygments_lexer": "ipython3",
   "version": "3.12.3"
  }
 },
 "nbformat": 4,
 "nbformat_minor": 5
}
